<?xml version="1.0" standalone="no"?>
<!DOCTYPE svg PUBLIC "-//W3C//DTD SVG 20010904//EN"
 "http://www.w3.org/TR/2001/REC-SVG-20010904/DTD/svg10.dtd">
<svg version="1.0" xmlns="http://www.w3.org/2000/svg"
 width="246.000000pt" height="245.000000pt" viewBox="0 0 246.000000 245.000000"
 preserveAspectRatio="xMidYMid meet">

<g transform="translate(0.000000,245.000000) scale(0.100000,-0.100000)"
fill="#000000" stroke="none">
<path d="M1018 2385 c-2 -2 -62 -9 -133 -15 -252 -22 -357 -60 -490 -180 -258
-230 -397 -704 -345 -1175 22 -193 94 -412 188 -569 28 -47 82 -115 132 -166
74 -75 99 -93 190 -137 116 -57 192 -74 410 -94 165 -15 544 -6 670 15 129 23
176 38 272 88 235 122 410 396 474 743 15 80 19 147 19 335 -1 209 -4 247 -24
340 -63 281 -167 479 -332 626 -159 143 -322 183 -781 189 -135 2 -248 2 -250
0z m220 -234 c11 -7 6 -25 -25 -89 l-38 -81 -75 -1 c-180 -1 -356 -64 -481
-171 l-70 -61 15 36 c62 148 216 282 386 337 101 33 258 49 288 30z m-871
-188 c-43 -129 14 -293 151 -435 51 -53 49 -55 -25 -33 -92 27 -183 99 -223
176 -17 33 -18 41 -5 95 8 32 21 77 30 99 16 38 83 155 89 155 2 0 -6 -26 -17
-57z m1551 6 c73 -32 163 -131 215 -239 81 -166 120 -422 98 -635 -28 -263
-90 -433 -199 -543 -77 -79 -137 -107 -227 -107 -61 0 -77 4 -127 33 -179 103
-286 335 -313 677 -21 263 76 585 220 730 109 110 213 137 333 84z m-871 -496
c-3 -21 -9 -61 -13 -89 l-6 -50 -60 4 c-75 6 -180 -19 -278 -65 -57 -27 -94
-55 -154 -114 -88 -89 -92 -82 -30 49 26 54 54 91 102 138 113 108 233 158
396 163 l49 1 -6 -37z m-802 -402 c25 -26 56 -62 69 -81 29 -43 115 -117 175
-150 73 -41 67 -54 -21 -48 -90 6 -181 45 -245 105 -40 37 -43 43 -43 94 0 30
-3 86 -6 124 -5 70 -5 70 11 36 8 -19 35 -55 60 -80z m789 -242 l7 -65 -58
-18 c-32 -10 -81 -29 -109 -41 -64 -29 -186 -135 -231 -200 l-35 -50 7 38 c34
198 155 346 338 412 72 27 70 29 81 -76z m-610 -449 c4 0 45 -21 89 -48 45
-26 102 -56 127 -66 69 -30 72 -39 10 -34 -110 10 -161 33 -237 106 -38 37
-80 83 -93 102 -25 35 -24 35 36 -12 33 -27 64 -48 68 -48z m749 -61 l33 -55
-78 -18 c-43 -9 -112 -34 -153 -55 -68 -34 -75 -36 -69 -17 14 46 45 93 86
133 45 44 127 88 140 75 4 -4 23 -33 41 -63z"/>
</g>
</svg>
