<?xml version="1.0" encoding="UTF-8"?>
<!DOCTYPE svg PUBLIC "-//W3C//DTD SVG 1.1//EN" "http://www.w3.org/Graphics/SVG/1.1/DTD/svg11.dtd">
<svg xmlns="http://www.w3.org/2000/svg" version="1.1" width="294px" height="294px" style="shape-rendering:geometricPrecision; text-rendering:geometricPrecision; image-rendering:optimizeQuality; fill-rule:evenodd; clip-rule:evenodd" xmlns:xlink="http://www.w3.org/1999/xlink">
<g><path style="opacity:0.02" fill="#f3f3f3" d="M 123.5,28.5 C 122.791,29.404 121.791,29.7373 120.5,29.5C 120.369,28.7611 120.536,28.0944 121,27.5C 121.671,28.2524 122.504,28.5858 123.5,28.5 Z"/></g>
<g><path style="opacity:0.004" fill="#fefffe" d="M 194.5,27.5 C 195.833,28.1667 195.833,28.1667 194.5,27.5 Z"/></g>
<g><path style="opacity:0.004" fill="#fefffe" d="M 200.5,28.5 C 200.897,27.475 201.563,27.3083 202.5,28C 201.906,28.4643 201.239,28.631 200.5,28.5 Z"/></g>
<g><path style="opacity:0.004" fill="#fefffe" d="M 206.5,27.5 C 207.833,28.1667 207.833,28.1667 206.5,27.5 Z"/></g>
<g><path style="opacity:0.004" fill="#fefffe" d="M 79.5,28.5 C 80.8333,29.1667 80.8333,29.1667 79.5,28.5 Z"/></g>
<g><path style="opacity:0.004" fill="#fefffe" d="M 83.5,28.5 C 84.8333,29.1667 84.8333,29.1667 83.5,28.5 Z"/></g>
<g><path style="opacity:1" fill="#030303" d="M 126.5,28.5 C 129.167,29.8333 131.833,29.8333 134.5,28.5C 136.862,27.6427 139.196,27.3093 141.5,27.5C 154.524,28.1544 167.524,29.1544 180.5,30.5C 181.167,30.1667 181.833,29.8333 182.5,29.5C 186.343,30.8985 190.176,31.2318 194,30.5C 195.958,31.952 197.958,32.2854 200,31.5C 201.468,33.0362 202.968,33.3696 204.5,32.5C 205.008,34.2327 205.841,34.566 207,33.5C 208.346,35.3417 210.179,36.3417 212.5,36.5C 215.331,38.4168 218.331,40.0834 221.5,41.5C 223.869,42.69 225.869,44.3567 227.5,46.5C 227.833,47.5 228.5,48.1667 229.5,48.5C 230.167,48.5 230.5,48.8333 230.5,49.5C 230.973,50.9063 231.973,51.573 233.5,51.5C 234.833,53.5 236.5,55.1667 238.5,56.5C 239.08,58.7488 240.413,60.4154 242.5,61.5C 243.167,62.1667 243.833,62.8333 244.5,63.5C 243.833,63.5 243.5,63.8333 243.5,64.5C 243.5,65.1667 243.833,65.5 244.5,65.5C 245.512,66.8717 246.512,68.205 247.5,69.5C 247.932,70.7095 248.599,71.7095 249.5,72.5C 250.973,75.2847 252.306,77.618 253.5,79.5C 252.167,79.8333 252.167,80.1667 253.5,80.5C 253.328,81.4916 253.662,82.1583 254.5,82.5C 254.5,82.8333 254.5,83.1667 254.5,83.5C 254.5,83.8333 254.5,84.1667 254.5,84.5C 254.5,84.8333 254.5,85.1667 254.5,85.5C 255.514,87.5739 256.514,89.5739 257.5,91.5C 257.595,93.7857 258.262,95.7857 259.5,97.5C 266.699,128.339 267.366,159.339 261.5,190.5C 260.715,192.374 260.048,194.374 259.5,196.5C 259.5,197.167 259.5,197.833 259.5,198.5C 258.833,198.5 258.5,198.833 258.5,199.5C 258.5,199.833 258.5,200.167 258.5,200.5C 258.167,201.167 257.833,201.833 257.5,202.5C 257.335,204.827 256.669,206.993 255.5,209C 255.833,209.333 256.167,209.667 256.5,210C 255.619,210.708 254.953,211.542 254.5,212.5C 253.662,212.842 253.328,213.508 253.5,214.5C 251.112,217.301 249.612,220.634 249,224.5C 248.667,224.167 248.333,223.833 248,223.5C 246.156,226.528 244.322,229.528 242.5,232.5C 241.5,232.833 240.833,233.5 240.5,234.5C 239.308,236.113 238.308,237.78 237.5,239.5C 237.167,238.167 236.833,238.167 236.5,239.5C 235.167,240.167 234.167,241.167 233.5,242.5C 232.167,243.167 231.167,244.167 230.5,245.5C 229.833,245.5 229.5,245.833 229.5,246.5C 228.833,246.5 228.5,246.833 228.5,247.5C 227.833,247.5 227.5,247.833 227.5,248.5C 226.833,248.5 226.5,248.833 226.5,249.5C 224.809,250.864 223.142,252.197 221.5,253.5C 219.938,253.733 218.605,254.4 217.5,255.5C 216.508,255.328 215.842,255.662 215.5,256.5C 214.778,256.918 214.278,257.584 214,258.5C 212.984,257.366 212.317,257.699 212,259.5C 211.23,258.402 210.397,258.402 209.5,259.5C 208.508,259.328 207.842,259.662 207.5,260.5C 206.292,261.234 204.959,261.567 203.5,261.5C 202.391,261.557 201.391,261.89 200.5,262.5C 200.167,262.5 199.833,262.5 199.5,262.5C 198.833,262.833 198.167,263.167 197.5,263.5C 165.995,268.989 134.662,269.656 103.5,265.5C 103.158,264.662 102.492,264.328 101.5,264.5C 95.667,264.25 90.0003,263.25 84.5,261.5C 84.5,260.833 84.1667,260.5 83.5,260.5C 82.391,260.557 81.391,260.89 80.5,261.5C 78.9663,259.631 76.9663,258.298 74.5,257.5C 73.205,256.512 71.8717,255.512 70.5,254.5C 70.5,253.833 70.1667,253.5 69.5,253.5C 68.8333,253.5 68.5,253.833 68.5,254.5C 67.0552,252.937 65.3885,251.604 63.5,250.5C 62.653,249.034 61.3197,248.2 59.5,248C 60.7383,247.31 60.7383,246.81 59.5,246.5C 59.1667,245.5 58.5,244.833 57.5,244.5C 57.5,243.833 57.1667,243.5 56.5,243.5C 54.8333,241.5 53.1667,239.5 51.5,237.5C 51.1667,236.5 50.5,235.833 49.5,235.5C 48.791,234.596 47.791,234.263 46.5,234.5C 47.4427,232.999 47.1094,231.665 45.5,230.5C 45.5,230.167 45.5,229.833 45.5,229.5C 45.5,228.833 45.1667,228.5 44.5,228.5C 43.9423,227.21 42.9423,226.377 41.5,226C 42.2871,224.687 41.9538,223.52 40.5,222.5C 39.8902,221.609 39.5569,220.609 39.5,219.5C 39.6716,218.508 39.3382,217.842 38.5,217.5C 38.5,216.833 38.1667,216.5 37.5,216.5C 37.6716,215.508 37.3382,214.842 36.5,214.5C 36.6716,213.508 36.3382,212.842 35.5,212.5C 34.8201,209.607 33.4868,207.107 31.5,205C 31.9574,204.586 32.2907,204.086 32.5,203.5C 31.2528,201.677 30.5861,199.677 30.5,197.5C 30.1249,195.302 29.4582,193.302 28.5,191.5C 28.5,190.833 28.5,190.167 28.5,189.5C 28.6716,188.508 28.3382,187.842 27.5,187.5C 22.5205,165.76 21.5205,143.76 24.5,121.5C 26.039,116.308 27.3724,110.975 28.5,105.5C 28.5,104.5 28.5,103.5 28.5,102.5C 29.6737,101.486 30.3404,100.153 30.5,98.5C 34.5023,83.4697 41.1689,69.803 50.5,57.5C 53.4729,53.8604 56.8062,50.5271 60.5,47.5C 61.5,47.1667 62.1667,46.5 62.5,45.5C 64.2279,43.7745 66.2279,42.4411 68.5,41.5C 69.7095,41.0679 70.7095,40.4013 71.5,39.5C 71.8417,38.6618 72.5084,38.3284 73.5,38.5C 74.1667,38.5 74.5,38.1667 74.5,37.5C 75.4916,37.6716 76.1583,37.3382 76.5,36.5C 78.153,36.3404 79.4863,35.6737 80.5,34.5C 82.2161,34.3713 83.8828,34.038 85.5,33.5C 86.791,33.7373 87.791,33.404 88.5,32.5C 92.7978,31.8005 97.1311,31.4672 101.5,31.5C 102.791,31.7373 103.791,31.404 104.5,30.5C 109.313,30.7803 113.98,30.1137 118.5,28.5C 119.183,28.8627 119.85,29.1961 120.5,29.5C 121.791,29.7373 122.791,29.404 123.5,28.5C 124.5,27.1667 125.5,27.1667 126.5,28.5 Z"/></g>
<g><path style="opacity:0.702" fill="#cccccc" d="M 134.5,28.5 C 131.833,29.8333 129.167,29.8333 126.5,28.5C 129.477,28.3155 132.144,28.3155 134.5,28.5 Z"/></g>
<g><path style="opacity:0.012" fill="#fefffe" d="M 191.5,28.5 C 192.833,29.1667 192.833,29.1667 191.5,28.5 Z"/></g>
<g><path style="opacity:0.004" fill="#fefffe" d="M 200.5,28.5 C 199.833,29.1667 199.833,29.1667 200.5,28.5 Z"/></g>
<g><path style="opacity:0.004" fill="#fefffe" d="M 203.5,28.5 C 204.833,29.1667 204.833,29.1667 203.5,28.5 Z"/></g>
<g><path style="opacity:0.027" fill="#fefffe" d="M 86.5,29.5 C 87.8333,30.1667 87.8333,30.1667 86.5,29.5 Z"/></g>
<g><path style="opacity:0.007" fill="#ebebeb" d="M 104.5,30.5 C 103.791,31.404 102.791,31.7373 101.5,31.5C 101.804,29.2043 102.804,28.871 104.5,30.5 Z"/></g>
<g><path style="opacity:0.004" fill="#fefffe" d="M 196.5,30.5 C 196.897,29.475 197.563,29.3083 198.5,30C 197.906,30.4643 197.239,30.631 196.5,30.5 Z"/></g>
<g><path style="opacity:0.004" fill="#fefffe" d="M 203.5,29.5 C 203.103,30.525 202.437,30.6917 201.5,30C 202.094,29.5357 202.761,29.369 203.5,29.5 Z"/></g>
<g><path style="opacity:0.004" fill="#fefffe" d="M 206.5,29.5 C 207.833,30.1667 207.833,30.1667 206.5,29.5 Z"/></g>
<g><path style="opacity:0.004" fill="#fefffe" d="M 79.5,30.5 C 80.8333,31.1667 80.8333,31.1667 79.5,30.5 Z"/></g>
<g><path style="opacity:0.052" fill="#fefefe" d="M 88.5,32.5 C 87.791,33.404 86.791,33.7373 85.5,33.5C 84.537,32.6365 84.537,31.9698 85.5,31.5C 86.4168,32.1272 87.4168,32.4606 88.5,32.5 Z"/></g>
<g><path style="opacity:0.009" fill="#fefffe" d="M 204.5,32.5 C 205.251,31.4265 206.251,31.2599 207.5,32C 206.552,32.4828 205.552,32.6495 204.5,32.5 Z"/></g>
<g><path style="opacity:0.014" fill="#fefffe" d="M 80.5,33.5 C 80.8966,32.475 81.5632,32.3083 82.5,33C 81.9056,33.4643 81.2389,33.631 80.5,33.5 Z"/></g>
<g><path style="opacity:0.004" fill="#fefffe" d="M 80.5,33.5 C 80.5,33.8333 80.5,34.1667 80.5,34.5C 79.8299,34.0187 79.8299,33.6853 80.5,33.5 Z"/></g>
<g><path style="opacity:0.004" fill="#fefffe" d="M 67.5,35.5 C 68.8333,36.1667 68.8333,36.1667 67.5,35.5 Z"/></g>
<g><path style="opacity:0.004" fill="#fefffe" d="M 76.5,36.5 C 75.8333,35.1667 75.8333,35.1667 76.5,36.5 Z"/></g>
<g><path style="opacity:0.004" fill="#fefffe" d="M 212.5,35.5 C 213.833,36.1667 213.833,36.1667 212.5,35.5 Z"/></g>
<g><path style="opacity:0.011" fill="#fefffe" d="M 287.5,35.5 C 288.598,36.6009 288.765,37.9343 288,39.5C 287.51,38.2068 287.343,36.8734 287.5,35.5 Z"/></g>
<g><path style="opacity:0.006" fill="#fefffe" d="M 74.5,37.5 C 74.5,38.1667 74.1667,38.5 73.5,38.5C 73.0825,37.7784 72.4158,37.2784 71.5,37C 72.7494,36.2599 73.7494,36.4265 74.5,37.5 Z"/></g>
<g><path style="opacity:0.014" fill="#fefffe" d="M 220.5,37.5 C 220.897,36.475 221.563,36.3083 222.5,37C 221.906,37.4643 221.239,37.631 220.5,37.5 Z"/></g>
<g><path style="opacity:0.004" fill="#fefffe" d="M 64.5,37.5 C 65.8333,38.1667 65.8333,38.1667 64.5,37.5 Z"/></g>
<g><path style="opacity:0.025" fill="#fefffe" d="M 68.5,38.5 C 68.8966,37.475 69.5632,37.3083 70.5,38C 69.9056,38.4643 69.2389,38.631 68.5,38.5 Z"/></g>
<g><path style="opacity:0.01" fill="#fefffe" d="M 68.5,38.5 C 68.5,38.8333 68.5,39.1667 68.5,39.5C 65.8333,39.1667 65.8333,38.8333 68.5,38.5 Z"/></g>
<g><path style="opacity:0.004" fill="#fefffe" d="M 63.5,40.5 C 63.8966,39.475 64.5632,39.3083 65.5,40C 64.9056,40.4643 64.2389,40.631 63.5,40.5 Z"/></g>
<g><path style="opacity:0.056" fill="#fefefe" d="M 68.5,39.5 C 69.5,39.5 70.5,39.5 71.5,39.5C 70.7095,40.4013 69.7095,41.0679 68.5,41.5C 68.5,40.8333 68.5,40.1667 68.5,39.5 Z"/></g>
<g><path style="opacity:0.024" fill="#fefffe" d="M 221.5,41.5 C 221.897,40.475 222.563,40.3083 223.5,41C 222.906,41.4643 222.239,41.631 221.5,41.5 Z"/></g>
<g><path style="opacity:0.004" fill="#fefffe" d="M 59.5,43.5 C 60.8333,44.1667 60.8333,44.1667 59.5,43.5 Z"/></g>
<g><path style="opacity:0.004" fill="#fefffe" d="M 238.5,43.5 C 239.833,44.1667 239.833,44.1667 238.5,43.5 Z"/></g>
<g><path style="opacity:0.012" fill="#fefffe" d="M 59.5,44.5 C 58.8333,45.1667 58.8333,45.1667 59.5,44.5 Z"/></g>
<g><path style="opacity:0.004" fill="#fefffe" d="M 228.5,44.5 C 229.833,45.1667 229.833,45.1667 228.5,44.5 Z"/></g>
<g><path style="opacity:0.004" fill="#fefffe" d="M 236.5,45.5 C 235.761,45.631 235.094,45.4643 234.5,45C 235.437,44.3083 236.103,44.475 236.5,45.5 Z"/></g>
<g><path style="opacity:0.004" fill="#fefffe" d="M 58.5,45.5 C 57.8333,46.1667 57.8333,46.1667 58.5,45.5 Z"/></g>
<g><path style="opacity:0.054" fill="#fefefe" d="M 62.5,45.5 C 62.1667,46.5 61.5,47.1667 60.5,47.5C 60.5,46.1667 61.1667,45.5 62.5,45.5 Z"/></g>
<g><path style="opacity:0.004" fill="#fefffe" d="M 236.5,45.5 C 237.833,46.1667 237.833,46.1667 236.5,45.5 Z"/></g>
<g><path style="opacity:0.004" fill="#e7e7e7" d="M 227.5,46.5 C 228.833,46.5 229.5,47.1667 229.5,48.5C 228.5,48.1667 227.833,47.5 227.5,46.5 Z"/></g>
<g><path style="opacity:0.004" fill="#fefffe" d="M 230.5,46.5 C 231.833,47.1667 231.833,47.1667 230.5,46.5 Z"/></g>
<g><path style="opacity:0.004" fill="#fefffe" d="M 232.5,47.5 C 233.833,48.1667 233.833,48.1667 232.5,47.5 Z"/></g>
<g><path style="opacity:0.03" fill="#fefffe" d="M 287.5,47.5 C 289.59,47.4501 290.923,48.4501 291.5,50.5C 290.359,51.4255 290.359,52.2588 291.5,53C 290.207,53.49 288.873,53.6567 287.5,53.5C 287.5,51.5 287.5,49.5 287.5,47.5 Z"/></g>
<g><path style="opacity:0.035" fill="#e0e0e0" d="M 230.5,49.5 C 232.027,49.427 233.027,50.0937 233.5,51.5C 231.973,51.573 230.973,50.9063 230.5,49.5 Z"/></g>
<g><path style="opacity:0.995" fill="#fdfdfd" d="M 77.5,92.5 C 77.5,91.8333 77.1667,91.5 76.5,91.5C 86.1294,71.1484 102.129,58.6484 124.5,54C 132.464,52.6688 140.464,52.3355 148.5,53C 144.596,57.9713 141.596,63.4713 139.5,69.5C 122.531,69.4589 106.531,73.2923 91.5,81C 86.3778,84.2898 81.7112,88.1231 77.5,92.5 Z"/></g>
<g><path style="opacity:0.012" fill="#fefffe" d="M 238.5,52.5 C 239.833,53.1667 239.833,53.1667 238.5,52.5 Z"/></g>
<g><path style="opacity:0.035" fill="#fefffe" d="M 238.5,55.5 C 239.833,56.1667 239.833,56.1667 238.5,55.5 Z"/></g>
<g><path style="opacity:0.004" fill="#fefffe" d="M 50.5,57.5 C 49.8333,56.1667 49.8333,56.1667 50.5,57.5 Z"/></g>
<g><path style="opacity:0.021" fill="#fefffe" d="M 287.5,67.5 C 287.18,64.1016 287.513,60.7683 288.5,57.5C 291.322,60.5815 292.656,64.2482 292.5,68.5C 290.708,68.634 289.042,68.3007 287.5,67.5 Z"/></g>
<g><path style="opacity:0.004" fill="#fefffe" d="M 45.5,59.5 C 46.8333,60.1667 46.8333,60.1667 45.5,59.5 Z"/></g>
<g><path style="opacity:0.008" fill="#fefffe" d="M 244.5,59.5 C 245.833,60.1667 245.833,60.1667 244.5,59.5 Z"/></g>
<g><path style="opacity:0.004" fill="#fefffe" d="M 246.5,59.5 C 247.833,60.1667 247.833,60.1667 246.5,59.5 Z"/></g>
<g><path style="opacity:0.022" fill="#fefffe" d="M 242.5,61.5 C 242.842,60.6618 243.508,60.3284 244.5,60.5C 244.158,61.3382 243.492,61.6716 242.5,61.5 Z"/></g>
<g><path style="opacity:0.004" fill="#fefffe" d="M 245.5,61.5 C 246.833,62.1667 246.833,62.1667 245.5,61.5 Z"/></g>
<g><path style="opacity:0.078" fill="#fdfdfd" d="M 244.5,63.5 C 245.833,64.1667 245.833,64.8333 244.5,65.5C 243.833,65.5 243.5,65.1667 243.5,64.5C 244.167,64.5 244.5,64.1667 244.5,63.5 Z"/></g>
<g><path style="opacity:0.035" fill="#fefffe" d="M 246.5,65.5 C 247.833,66.1667 247.833,66.1667 246.5,65.5 Z"/></g>
<g><path style="opacity:0.004" fill="#fefffe" d="M 249.5,67.5 C 250.833,68.1667 250.833,68.1667 249.5,67.5 Z"/></g>
<g><path style="opacity:0.004" fill="#fefffe" d="M 251.5,67.5 C 252.833,68.1667 252.833,68.1667 251.5,67.5 Z"/></g>
<g><path style="opacity:0.004" fill="#fefffe" d="M 253.5,67.5 C 254.525,67.8966 254.692,68.5632 254,69.5C 253.536,68.9056 253.369,68.2389 253.5,67.5 Z"/></g>
<g><path style="opacity:0.012" fill="#fefffe" d="M 271.5,67.5 C 273.337,67.6395 273.67,68.3061 272.5,69.5C 271.702,69.0431 271.369,68.3764 271.5,67.5 Z"/></g>
<g><path style="opacity:0.012" fill="#fefffe" d="M 287.5,67.5 C 284.035,69.2392 280.368,69.5726 276.5,68.5C 280.107,67.5108 283.774,67.1774 287.5,67.5 Z"/></g>
<g><path style="opacity:0.004" fill="#fefffe" d="M 247.5,68.5 C 248.833,69.1667 248.833,69.1667 247.5,68.5 Z"/></g>
<g><path style="opacity:1" fill="#c0392b" d="M 197.5,69.5 C 213.883,68.4419 226.05,75.1086 234,89.5C 253.292,128.498 253.292,167.498 234,206.5C 227.178,217.997 217.178,224.664 204,226.5C 192.041,225.186 182.708,219.519 176,209.5C 166.839,195.213 161.505,179.546 160,162.5C 156.388,134.369 162.055,108.369 177,84.5C 180.167,81.3333 183.333,78.1667 186.5,75C 190.017,72.6738 193.683,70.8405 197.5,69.5 Z"/></g>
<g><path style="opacity:0.992" fill="#fdfdfd" d="M 57.5,70.5 C 54.21,82.8977 56.0433,94.5644 63,105.5C 67.0235,111.014 71.1902,116.347 75.5,121.5C 63.4275,118.911 53.9275,112.578 47,102.5C 45.3131,98.5421 45.3131,94.5421 47,90.5C 48.7364,82.6998 52.2364,76.0331 57.5,70.5 Z"/></g>
<g><path style="opacity:0.004" fill="#fefffe" d="M 250.5,72.5 C 250.167,72.5 249.833,72.5 249.5,72.5C 249.833,69.8333 250.167,69.8333 250.5,72.5 Z"/></g>
<g><path style="opacity:0.008" fill="#fefffe" d="M 251.5,72.5 C 251.517,70.9719 252.184,70.4719 253.5,71C 252.956,71.7172 252.289,72.2172 251.5,72.5 Z"/></g>
<g><path style="opacity:0.008" fill="#fefffe" d="M 254.5,72.5 C 254.369,71.7611 254.536,71.0944 255,70.5C 255.692,71.4368 255.525,72.1034 254.5,72.5 Z"/></g>
<g><path style="opacity:0.024" fill="#fefefe" d="M 272.5,86.5 C 271.186,81.6523 271.186,76.6523 272.5,71.5C 273.779,76.5511 273.779,81.5511 272.5,86.5 Z"/></g>
<g><path style="opacity:0.035" fill="#fefffe" d="M 250.5,72.5 C 250.833,72.5 251.167,72.5 251.5,72.5C 251.315,73.1701 250.981,73.1701 250.5,72.5 Z"/></g>
<g><path style="opacity:0.01" fill="#fefffe" d="M 254.5,72.5 C 254.631,73.2389 254.464,73.9056 254,74.5C 253.308,73.5632 253.475,72.8966 254.5,72.5 Z"/></g>
<g><path style="opacity:0.004" fill="#fefffe" d="M 251.5,74.5 C 252.833,75.1667 252.833,75.1667 251.5,74.5 Z"/></g>
<g><path style="opacity:0.024" fill="#fefffe" d="M 254.5,77.5 C 253.833,76.1667 253.833,76.1667 254.5,77.5 Z"/></g>
<g><path style="opacity:0.004" fill="#fefffe" d="M 254.5,77.5 C 255.833,78.1667 255.833,78.8333 254.5,79.5C 254.5,78.8333 254.5,78.1667 254.5,77.5 Z"/></g>
<g><path style="opacity:0.012" fill="#fefffe" d="M 253.5,79.5 C 253.833,79.5 254.167,79.5 254.5,79.5C 254.315,80.1701 253.981,80.1701 253.5,79.5 Z"/></g>
<g><path style="opacity:0.004" fill="#fefffe" d="M 254.5,81.5 C 255.833,82.1667 255.833,82.1667 254.5,81.5 Z"/></g>
<g><path style="opacity:0.04" fill="#f9f9f9" d="M 254.5,84.5 C 254.5,84.1667 254.5,83.8333 254.5,83.5C 256.857,83.3367 259.19,83.5034 261.5,84C 259.208,86.2446 258.875,88.7446 260.5,91.5C 260.167,91.5 259.833,91.5 259.5,91.5C 258.833,88.8333 258.167,88.8333 257.5,91.5C 256.514,89.5739 255.514,87.5739 254.5,85.5C 255.833,85.1667 255.833,84.8333 254.5,84.5 Z M 259.5,91.5 C 258.833,91.5 258.167,91.5 257.5,91.5C 258.167,88.8333 258.833,88.8333 259.5,91.5 Z"/></g>
<g><path style="opacity:0.011" fill="#fefffe" d="M 263.5,83.5 C 264.978,83.238 266.311,83.5713 267.5,84.5C 266.009,85.2436 264.509,85.9103 263,86.5C 262.53,85.4232 262.697,84.4232 263.5,83.5 Z"/></g>
<g><path style="opacity:0.016" fill="#fefffe" d="M 13.5,85.5 C 15.337,85.6395 15.6704,86.3061 14.5,87.5C 13.7025,87.0431 13.3691,86.3764 13.5,85.5 Z"/></g>
<g><path style="opacity:0.032" fill="#fefefe" d="M 272.5,86.5 C 273.381,91.6673 271.047,94.6673 265.5,95.5C 263.253,94.9347 261.253,95.6013 259.5,97.5C 258.262,95.7857 257.595,93.7857 257.5,91.5C 258.167,91.5 258.833,91.5 259.5,91.5C 259.833,92.8333 260.167,92.8333 260.5,91.5C 261.434,90.4324 261.768,89.099 261.5,87.5C 263.604,87.2011 265.604,87.5344 267.5,88.5C 266.388,89.2652 265.721,90.2652 265.5,91.5C 266.75,91.5774 267.583,92.244 268,93.5C 268.036,90.0674 269.536,87.7341 272.5,86.5 Z M 265.5,91.5 C 265.483,93.0281 264.816,93.5281 263.5,93C 264.044,92.2828 264.711,91.7828 265.5,91.5 Z"/></g>
<g><path style="opacity:0.05" fill="#fdfefe" d="M 19.5,99.5 C 20.675,99.281 21.675,99.6143 22.5,100.5C 19.2717,103.259 18.2717,102.926 19.5,99.5 Z"/></g>
<g><path style="opacity:0.006" fill="#fefffe" d="M 25.5,101.5 C 23.663,101.361 23.3296,100.694 24.5,99.5C 25.2975,99.9569 25.6309,100.624 25.5,101.5 Z"/></g>
<g><path style="opacity:0.014" fill="#e7e5e7" d="M 30.5,98.5 C 30.3404,100.153 29.6737,101.486 28.5,102.5C 26.9026,100.244 27.5693,98.9103 30.5,98.5 Z"/></g>
<g><path style="opacity:0.033" fill="#fcfbfb" d="M 25.5,101.5 C 26.9779,102.448 27.9779,103.781 28.5,105.5C 27.3724,110.975 26.039,116.308 24.5,121.5C 24.631,120.761 24.4643,120.094 24,119.5C 23.5298,121.774 22.5298,123.774 21,125.5C 18.3419,118.112 19.8419,111.446 25.5,105.5C 24.5676,104.02 24.5676,102.687 25.5,101.5 Z"/></g>
<g><path style="opacity:0.012" fill="#fefffe" d="M 20.5,103.5 C 21.8333,104.167 21.8333,104.167 20.5,103.5 Z"/></g>
<g><path style="opacity:0.008" fill="#fefffe" d="M 22.5,104.5 C 23.8333,105.167 23.8333,105.167 22.5,104.5 Z"/></g>
<g><path style="opacity:0.004" fill="#fefffe" d="M 19.5,105.5 C 20.8333,106.167 20.8333,106.167 19.5,105.5 Z"/></g>
<g><path style="opacity:0.998" fill="#fdfdfd" d="M 68.5,159.5 C 68.5,158.833 68.1667,158.5 67.5,158.5C 77.7087,131.541 97.3753,118.207 126.5,118.5C 126.275,124.626 125.275,130.626 123.5,136.5C 107.766,134.909 93.4322,138.742 80.5,148C 76.631,152.037 72.631,155.87 68.5,159.5 Z"/></g>
<g><path style="opacity:0.012" fill="#fefffe" d="M 19.5,129.5 C 21.337,129.639 21.6704,130.306 20.5,131.5C 19.7025,131.043 19.3691,130.376 19.5,129.5 Z"/></g>
<g><path style="opacity:0.998" fill="#fefefe" d="M 36.5,151.5 C 46.2838,167.45 59.2838,180.283 75.5,190C 60.7349,192.193 48.5682,187.693 39,176.5C 37.5897,168.218 36.7563,159.885 36.5,151.5 Z"/></g>
<g><path style="opacity:0.014" fill="#eeeeee" d="M 68.5,159.5 C 68.27,161.983 67.6034,162.483 66.5,161C 66.8361,159.97 67.5028,159.47 68.5,159.5 Z"/></g>
<g><path style="opacity:0.012" fill="#fefffe" d="M 19.5,163.5 C 21.337,163.639 21.6704,164.306 20.5,165.5C 19.7025,165.043 19.3691,164.376 19.5,163.5 Z"/></g>
<g><path style="opacity:0.017" fill="#fefffe" d="M 20.5,169.5 C 24.4266,174.499 24.26,179.499 20,184.5C 19.6666,182.953 20.1666,181.62 21.5,180.5C 20.5853,179.672 19.9186,178.672 19.5,177.5C 19.8146,174.815 20.1479,172.149 20.5,169.5 Z"/></g>
<g><path style="opacity:0.992" fill="#fcfcfc" d="M 122.5,176.5 C 123.748,177.334 124.415,178.667 124.5,180.5C 125.369,184.818 125.536,189.151 125,193.5C 106.682,198.51 92.3486,208.843 82,224.5C 85.1776,199.82 98.6776,183.82 122.5,176.5 Z"/></g>
<g><path style="opacity:0.008" fill="#fefffe" d="M 24.5,182.5 C 25.8333,183.167 25.8333,183.167 24.5,182.5 Z"/></g>
<g><path style="opacity:0.024" fill="#fefffe" d="M 23.5,184.5 C 22.8333,183.167 22.8333,183.167 23.5,184.5 Z"/></g>
<g><path style="opacity:0.007" fill="#fefffe" d="M 23.5,184.5 C 24.5735,185.251 24.7401,186.251 24,187.5C 23.5172,186.552 23.3505,185.552 23.5,184.5 Z"/></g>
<g><path style="opacity:0.004" fill="#fefffe" d="M 20.5,186.5 C 20.8966,185.475 21.5632,185.308 22.5,186C 21.9056,186.464 21.2389,186.631 20.5,186.5 Z"/></g>
<g><path style="opacity:0.498" fill="#e0dedf" d="M 27.5,187.5 C 28.3382,187.842 28.6716,188.508 28.5,189.5C 25.075,189.633 24.7417,188.967 27.5,187.5 Z"/></g>
<g><path style="opacity:0.012" fill="#fefffe" d="M 25.5,192.5 C 24.475,192.103 24.3083,191.437 25,190.5C 25.4643,191.094 25.631,191.761 25.5,192.5 Z"/></g>
<g><path style="opacity:0.025" fill="#fbfbfb" d="M 261.5,190.5 C 261.944,192.113 262.944,193.28 264.5,194C 262.751,194.785 261.084,195.618 259.5,196.5C 260.048,194.374 260.715,192.374 261.5,190.5 Z"/></g>
<g><path style="opacity:0.004" fill="#fefffe" d="M 25.5,192.5 C 26.8333,193.167 26.8333,193.167 25.5,192.5 Z"/></g>
<g><path style="opacity:0.041" fill="#eceded" d="M 28.5,191.5 C 29.4582,193.302 30.1249,195.302 30.5,197.5C 29.8826,197.389 29.3826,197.056 29,196.5C 28.7266,194.899 28.2266,193.399 27.5,192C 27.7284,191.601 28.0618,191.435 28.5,191.5 Z"/></g>
<g><path style="opacity:0.022" fill="#fefffe" d="M 24.5,194.5 C 25.2891,194.783 25.9558,195.283 26.5,196C 25.184,196.528 24.5173,196.028 24.5,194.5 Z"/></g>
<g><path style="opacity:0.004" fill="#fefffe" d="M 265.5,194.5 C 266.833,195.167 266.833,195.167 265.5,194.5 Z"/></g>
<g><path style="opacity:0.004" fill="#fefffe" d="M 23.5,197.5 C 24.8333,198.167 24.8333,198.167 23.5,197.5 Z"/></g>
<g><path style="opacity:0.012" fill="#fefffe" d="M 26.5,197.5 C 27.8333,198.167 27.8333,198.167 26.5,197.5 Z"/></g>
<g><path style="opacity:0.004" fill="#fefffe" d="M 261.5,197.5 C 262.833,198.167 262.833,198.167 261.5,197.5 Z"/></g>
<g><path style="opacity:0.004" fill="#fefffe" d="M 29.5,201.5 C 29.1667,201.5 28.8333,201.5 28.5,201.5C 28.8333,197.5 29.1667,197.5 29.5,201.5 Z"/></g>
<g><path style="opacity:0.047" fill="#fefefe" d="M 258.5,199.5 C 258.5,198.833 258.833,198.5 259.5,198.5C 261.933,199.548 261.933,200.214 259.5,200.5C 259.5,199.833 259.167,199.5 258.5,199.5 Z"/></g>
<g><path style="opacity:0.029" fill="#f4f4f4" d="M 258.5,200.5 C 258.833,200.5 259.167,200.5 259.5,200.5C 259.5,201.833 258.833,202.5 257.5,202.5C 257.833,201.833 258.167,201.167 258.5,200.5 Z"/></g>
<g><path style="opacity:0.006" fill="#fefffe" d="M 28.5,201.5 C 28.1034,202.525 27.4368,202.692 26.5,202C 27.0944,201.536 27.7611,201.369 28.5,201.5 Z"/></g>
<g><path style="opacity:0.004" fill="#fefffe" d="M 29.5,201.5 C 30.525,201.897 30.6917,202.563 30,203.5C 29.5357,202.906 29.369,202.239 29.5,201.5 Z"/></g>
<g><path style="opacity:0.004" fill="#fefffe" d="M 24.5,202.5 C 25.8333,203.167 25.8333,203.167 24.5,202.5 Z"/></g>
<g><path style="opacity:0.004" fill="#fefffe" d="M 261.5,203.5 C 260.833,202.167 260.833,202.167 261.5,203.5 Z"/></g>
<g><path style="opacity:0.008" fill="#fefffe" d="M 261.5,203.5 C 262.833,204.167 262.833,204.167 261.5,203.5 Z"/></g>
<g><path style="opacity:0.016" fill="#fefffe" d="M 260.5,206.5 C 259.475,206.103 259.308,205.437 260,204.5C 260.464,205.094 260.631,205.761 260.5,206.5 Z"/></g>
<g><path style="opacity:0.004" fill="#fefffe" d="M 262.5,205.5 C 263.833,206.167 263.833,206.167 262.5,205.5 Z"/></g>
<g><path style="opacity:0.016" fill="#fefffe" d="M 257.5,206.5 C 258.525,206.897 258.692,207.563 258,208.5C 257.536,207.906 257.369,207.239 257.5,206.5 Z"/></g>
<g><path style="opacity:0.006" fill="#fefffe" d="M 260.5,206.5 C 261.525,206.897 261.692,207.563 261,208.5C 260.536,207.906 260.369,207.239 260.5,206.5 Z"/></g>
<g><path style="opacity:0.004" fill="#fefffe" d="M 31.5,207.5 C 32.8333,208.167 32.8333,208.167 31.5,207.5 Z"/></g>
<g><path style="opacity:0.004" fill="#fefffe" d="M 262.5,208.5 C 263.833,209.167 263.833,209.167 262.5,208.5 Z"/></g>
<g><path style="opacity:0.004" fill="#fefffe" d="M 32.5,209.5 C 33.8333,210.167 33.8333,210.167 32.5,209.5 Z"/></g>
<g><path style="opacity:0.004" fill="#fefffe" d="M 257.5,210.5 C 258.833,211.167 258.833,211.167 257.5,210.5 Z"/></g>
<g><path style="opacity:0.004" fill="#fefffe" d="M 260.5,210.5 C 261.833,211.167 261.833,211.167 260.5,210.5 Z"/></g>
<g><path style="opacity:0.008" fill="#fefffe" d="M 32.5,211.5 C 33.8333,212.167 33.8333,212.167 32.5,211.5 Z"/></g>
<g><path style="opacity:0.004" fill="#fefffe" d="M 35.5,212.5 C 34.8333,213.167 34.8333,213.167 35.5,212.5 Z"/></g>
<g><path style="opacity:0.014" fill="#fefffe" d="M 254.5,212.5 C 255.833,213.167 255.833,213.833 254.5,214.5C 254.5,213.833 254.5,213.167 254.5,212.5 Z"/></g>
<g><path style="opacity:0.004" fill="#fefffe" d="M 32.5,214.5 C 31.8333,213.167 31.8333,213.167 32.5,214.5 Z"/></g>
<g><path style="opacity:0.008" fill="#fefffe" d="M 32.5,214.5 C 33.8333,215.167 33.8333,215.167 32.5,214.5 Z"/></g>
<g><path style="opacity:0.004" fill="#fefffe" d="M 36.5,214.5 C 35.8333,215.167 35.8333,215.167 36.5,214.5 Z"/></g>
<g><path style="opacity:0.008" fill="#fefffe" d="M 253.5,214.5 C 253.833,214.5 254.167,214.5 254.5,214.5C 254.315,215.17 253.981,215.17 253.5,214.5 Z"/></g>
<g><path style="opacity:0.004" fill="#fefffe" d="M 35.5,215.5 C 34.8333,216.167 34.8333,216.167 35.5,215.5 Z"/></g>
<g><path style="opacity:0.016" fill="#fefffe" d="M 37.5,216.5 C 36.8333,217.167 36.8333,217.167 37.5,216.5 Z"/></g>
<g><path style="opacity:0.004" fill="#fefffe" d="M 32.5,217.5 C 33.525,217.897 33.6917,218.563 33,219.5C 32.5357,218.906 32.369,218.239 32.5,217.5 Z"/></g>
<g><path style="opacity:0.02" fill="#fefffe" d="M 36.5,217.5 C 36.631,218.239 36.4643,218.906 36,219.5C 35.3083,218.563 35.475,217.897 36.5,217.5 Z"/></g>
<g><path style="opacity:0.012" fill="#fefffe" d="M 253.5,217.5 C 254.833,218.167 254.833,218.167 253.5,217.5 Z"/></g>
<g><path style="opacity:0.022" fill="#e3e3e3" d="M 38.5,217.5 C 39.3382,217.842 39.6716,218.508 39.5,219.5C 37.3023,219.591 36.9689,218.925 38.5,217.5 Z"/></g>
<g><path style="opacity:0.022" fill="#fefffe" d="M 40.5,222.5 C 40.631,223.239 40.4643,223.906 40,224.5C 39.3083,223.563 39.475,222.897 40.5,222.5 Z"/></g>
<g><path style="opacity:0.008" fill="#fefffe" d="M 251.5,226.5 C 248.999,226.489 248.832,225.822 251,224.5C 251.464,225.094 251.631,225.761 251.5,226.5 Z"/></g>
<g><path style="opacity:0.01" fill="#fefffe" d="M 253.5,224.5 C 254.573,225.251 254.74,226.251 254,227.5C 253.517,226.552 253.351,225.552 253.5,224.5 Z"/></g>
<g><path style="opacity:0.988" fill="#fdfdfd" d="M 88.5,246.5 C 88.5,246.833 88.5,247.167 88.5,247.5C 87.209,247.263 86.209,247.596 85.5,248.5C 70.3823,246.553 59.549,238.887 53,225.5C 63.789,234.149 75.6223,241.149 88.5,246.5 Z"/></g>
<g><path style="opacity:0.004" fill="#fefffe" d="M 251.5,226.5 C 252.833,227.167 252.833,227.167 251.5,226.5 Z"/></g>
<g><path style="opacity:0.004" fill="#fefffe" d="M 40.5,228.5 C 40.8966,227.475 41.5632,227.308 42.5,228C 41.9056,228.464 41.2389,228.631 40.5,228.5 Z"/></g>
<g><path style="opacity:0.004" fill="#fefffe" d="M 40.5,228.5 C 39.8333,229.167 39.8333,229.167 40.5,228.5 Z"/></g>
<g><path style="opacity:0.018" fill="#fbfbfb" d="M 44.5,228.5 C 45.1667,228.5 45.5,228.833 45.5,229.5C 44.8333,229.5 44.5,229.833 44.5,230.5C 43.1667,229.833 43.1667,229.167 44.5,228.5 Z"/></g>
<g><path style="opacity:0.014" fill="#fefffe" d="M 245.5,229.5 C 246.773,230.077 246.773,230.743 245.5,231.5C 244.537,231.03 244.537,230.363 245.5,229.5 Z"/></g>
<g><path style="opacity:0.016" fill="#fefffe" d="M 42.5,231.5 C 41.8333,230.167 41.8333,230.167 42.5,231.5 Z"/></g>
<g><path style="opacity:0.039" fill="#fefffe" d="M 44.5,230.5 C 44.8333,230.5 45.1667,230.5 45.5,230.5C 45.3147,231.17 44.9813,231.17 44.5,230.5 Z"/></g>
<g><path style="opacity:0.004" fill="#fefffe" d="M 40.5,233.5 C 39.475,233.103 39.3083,232.437 40,231.5C 40.4643,232.094 40.631,232.761 40.5,233.5 Z"/></g>
<g><path style="opacity:0.008" fill="#fefffe" d="M 42.5,231.5 C 43.525,231.897 43.6917,232.563 43,233.5C 42.5357,232.906 42.369,232.239 42.5,231.5 Z"/></g>
<g><path style="opacity:0.998" fill="#fefefe" d="M 134.5,231.5 C 137.105,235.794 139.772,240.127 142.5,244.5C 131.485,246.447 121.319,250.447 112,256.5C 112.427,252.619 113.76,248.953 116,245.5C 118.833,242.667 121.667,239.833 124.5,237C 127.949,235.251 131.283,233.417 134.5,231.5 Z"/></g>
<g><path style="opacity:0.025" fill="#fefffe" d="M 242.5,232.5 C 242.5,233.833 241.833,234.5 240.5,234.5C 240.833,233.5 241.5,232.833 242.5,232.5 Z"/></g>
<g><path style="opacity:0.012" fill="#fefffe" d="M 40.5,233.5 C 41.8333,234.167 41.8333,234.167 40.5,233.5 Z"/></g>
<g><path style="opacity:0.024" fill="#fefffe" d="M 46.5,234.5 C 45.8333,235.167 45.8333,235.167 46.5,234.5 Z"/></g>
<g><path style="opacity:0.004" fill="#fefffe" d="M 244.5,234.5 C 245.833,235.167 245.833,235.167 244.5,234.5 Z"/></g>
<g><path style="opacity:0.004" fill="#fefffe" d="M 246.5,234.5 C 247.833,235.167 247.833,235.167 246.5,234.5 Z"/></g>
<g><path style="opacity:0.067" fill="#fefefe" d="M 49.5,235.5 C 50.5,235.833 51.1667,236.5 51.5,237.5C 50.1667,237.5 49.5,236.833 49.5,235.5 Z"/></g>
<g><path style="opacity:0.025" fill="#fefffe" d="M 236.5,239.5 C 236.833,239.5 237.167,239.5 237.5,239.5C 237.5,239.833 237.5,240.167 237.5,240.5C 236.395,241.6 235.062,242.267 233.5,242.5C 234.167,241.167 235.167,240.167 236.5,239.5 Z"/></g>
<g><path style="opacity:0.039" fill="#fefffe" d="M 237.5,240.5 C 238.833,241.167 238.833,241.167 237.5,240.5 Z"/></g>
<g><path style="opacity:0.004" fill="#fefffe" d="M 50.5,241.5 C 51.8333,242.167 51.8333,242.167 50.5,241.5 Z"/></g>
<g><path style="opacity:0.012" fill="#fefffe" d="M 47.5,242.5 C 48.8333,243.167 48.8333,243.167 47.5,242.5 Z"/></g>
<g><path style="opacity:0.024" fill="#fefffe" d="M 50.5,242.5 C 49.8333,243.167 49.8333,243.167 50.5,242.5 Z"/></g>
<g><path style="opacity:0.012" fill="#fefffe" d="M 233.5,242.5 C 233.5,243.5 233.5,244.5 233.5,245.5C 232.5,245.5 231.5,245.5 230.5,245.5C 231.167,244.167 232.167,243.167 233.5,242.5 Z"/></g>
<g><path style="opacity:0.004" fill="#fefffe" d="M 236.5,242.5 C 237.833,243.167 237.833,243.167 236.5,242.5 Z"/></g>
<g><path style="opacity:0.004" fill="#fefffe" d="M 56.5,243.5 C 55.8333,244.167 55.8333,244.167 56.5,243.5 Z"/></g>
<g><path style="opacity:0.005" fill="#fefffe" d="M 57.5,244.5 C 58.5,244.833 59.1667,245.5 59.5,246.5C 58.8333,246.5 58.1667,246.5 57.5,246.5C 57.5,245.833 57.5,245.167 57.5,244.5 Z"/></g>
<g><path style="opacity:0.024" fill="#fefffe" d="M 56.5,246.5 C 55.8333,245.167 55.8333,245.167 56.5,246.5 Z"/></g>
<g><path style="opacity:0.055" fill="#fefffe" d="M 56.5,246.5 C 56.8333,246.5 57.1667,246.5 57.5,246.5C 57.3147,247.17 56.9813,247.17 56.5,246.5 Z"/></g>
<g><path style="opacity:0.427" fill="#ececec" d="M 89.5,246.5 C 90.7574,247.623 90.4241,248.289 88.5,248.5C 88.5,248.167 88.5,247.833 88.5,247.5C 89.1667,247.5 89.5,247.167 89.5,246.5 Z"/></g>
<g><path style="opacity:0.004" fill="#fefffe" d="M 229.5,246.5 C 230.833,247.167 230.833,247.167 229.5,246.5 Z"/></g>
<g><path style="opacity:0.035" fill="#fefffe" d="M 228.5,247.5 C 228.833,247.5 229.167,247.5 229.5,247.5C 229.315,248.17 228.981,248.17 228.5,247.5 Z"/></g>
<g><path style="opacity:0.004" fill="#fefffe" d="M 56.5,249.5 C 55.8333,248.167 55.8333,248.167 56.5,249.5 Z"/></g>
<g><path style="opacity:0.047" fill="#fefffe" d="M 227.5,248.5 C 227.833,248.5 228.167,248.5 228.5,248.5C 228.5,248.833 228.5,249.167 228.5,249.5C 228.167,249.167 227.833,248.833 227.5,248.5 Z"/></g>
<g><path style="opacity:0.035" fill="#fefffe" d="M 230.5,248.5 C 231.833,249.167 231.833,249.167 230.5,248.5 Z"/></g>
<g><path style="opacity:0.016" fill="#fefffe" d="M 56.5,249.5 C 57.8333,250.167 57.8333,250.167 56.5,249.5 Z"/></g>
<g><path style="opacity:0.004" fill="#fefffe" d="M 226.5,249.5 C 226.833,249.5 227.167,249.5 227.5,249.5C 227.315,250.17 226.981,250.17 226.5,249.5 Z"/></g>
<g><path style="opacity:0.035" fill="#fefffe" d="M 228.5,249.5 C 229.833,250.167 229.833,250.167 228.5,249.5 Z"/></g>
<g><path style="opacity:0.008" fill="#fefffe" d="M 56.5,250.5 C 55.8333,251.167 55.8333,251.167 56.5,250.5 Z"/></g>
<g><path style="opacity:0.004" fill="#fefffe" d="M 63.5,250.5 C 62.8333,251.167 62.8333,251.167 63.5,250.5 Z"/></g>
<g><path style="opacity:0.075" fill="#fefffe" d="M 64.5,253.5 C 63.8333,252.167 63.8333,252.167 64.5,253.5 Z"/></g>
<g><path style="opacity:0.014" fill="#fefffe" d="M 64.5,253.5 C 67.1338,254.658 66.9671,255.658 64,256.5C 63.5304,255.423 63.6971,254.423 64.5,253.5 Z"/></g>
<g><path style="opacity:0.047" fill="#fefffe" d="M 221.5,253.5 C 222.833,254.167 222.833,254.167 221.5,253.5 Z"/></g>
<g><path style="opacity:0.016" fill="#f2f2f2" d="M 69.5,253.5 C 70.1667,253.5 70.5,253.833 70.5,254.5C 69.8333,255.833 69.1667,255.833 68.5,254.5C 69.1667,254.5 69.5,254.167 69.5,253.5 Z"/></g>
<g><path style="opacity:0.042" fill="#fefefe" d="M 215.5,256.5 C 215.842,255.662 216.508,255.328 217.5,255.5C 217.672,256.492 217.338,257.158 216.5,257.5C 216.5,256.833 216.167,256.5 215.5,256.5 Z"/></g>
<g><path style="opacity:0.039" fill="#fefffe" d="M 222.5,255.5 C 223.833,256.167 223.833,256.167 222.5,255.5 Z"/></g>
<g><path style="opacity:0.004" fill="#fefffe" d="M 65.5,256.5 C 66.2891,256.783 66.9558,257.283 67.5,258C 66.1667,258.667 64.8333,258.667 63.5,258C 64.4158,257.722 65.0825,257.222 65.5,256.5 Z"/></g>
<g><path style="opacity:0.004" fill="#fefffe" d="M 220.5,256.5 C 221.833,257.167 221.833,257.167 220.5,256.5 Z"/></g>
<g><path style="opacity:0.004" fill="#fefffe" d="M 70.5,257.5 C 71.8333,258.167 71.8333,258.167 70.5,257.5 Z"/></g>
<g><path style="opacity:0.008" fill="#fefffe" d="M 74.5,257.5 C 74.1034,258.525 73.4368,258.692 72.5,258C 73.0944,257.536 73.7611,257.369 74.5,257.5 Z"/></g>
<g><path style="opacity:0.004" fill="#fefffe" d="M 216.5,257.5 C 215.833,258.167 215.833,258.167 216.5,257.5 Z"/></g>
<g><path style="opacity:0.004" fill="#fefffe" d="M 220.5,257.5 C 219.833,258.167 219.833,258.167 220.5,257.5 Z"/></g>
<g><path style="opacity:0.004" fill="#fefffe" d="M 222.5,257.5 C 223.833,258.167 223.833,258.167 222.5,257.5 Z"/></g>
<g><path style="opacity:0.016" fill="#fefffe" d="M 70.5,258.5 C 70.1034,259.525 69.4368,259.692 68.5,259C 69.0944,258.536 69.7611,258.369 70.5,258.5 Z"/></g>
<g><path style="opacity:0.004" fill="#fefffe" d="M 217.5,258.5 C 218.833,259.167 218.833,259.167 217.5,258.5 Z"/></g>
<g><path style="opacity:0.007" fill="#fefffe" d="M 209.5,259.5 C 209.289,261.424 208.623,261.757 207.5,260.5C 207.842,259.662 208.508,259.328 209.5,259.5 Z"/></g>
<g><path style="opacity:0.027" fill="#fefffe" d="M 80.5,261.5 C 79.8333,262.167 79.8333,262.167 80.5,261.5 Z"/></g>
<g><path style="opacity:0.018" fill="#f8f8f8" d="M 83.5,260.5 C 84.1667,260.5 84.5,260.833 84.5,261.5C 82.654,262.742 82.3207,262.409 83.5,260.5 Z"/></g>
<g><path style="opacity:0.029" fill="#fefffe" d="M 199.5,262.5 C 199.5,263.167 199.833,263.5 200.5,263.5C 199.5,264.833 198.5,264.833 197.5,263.5C 198.167,263.167 198.833,262.833 199.5,262.5 Z"/></g>
<g><path style="opacity:0.008" fill="#f3f3f3" d="M 203.5,261.5 C 203.027,262.906 202.027,263.573 200.5,263.5C 200.5,263.167 200.5,262.833 200.5,262.5C 201.391,261.89 202.391,261.557 203.5,261.5 Z"/></g>
<g><path style="opacity:0.004" fill="#fefffe" d="M 204.5,262.5 C 205.833,263.167 205.833,263.167 204.5,262.5 Z"/></g>
<g><path style="opacity:0.018" fill="#fefffe" d="M 80.5,264.5 C 81.1667,263.167 81.8333,263.167 82.5,264.5C 81.8333,264.5 81.1667,264.5 80.5,264.5 Z"/></g>
<g><path style="opacity:0.004" fill="#fefffe" d="M 84.5,264.5 C 85.1667,263.167 85.8333,263.167 86.5,264.5C 85.8333,264.5 85.1667,264.5 84.5,264.5 Z"/></g>
<g><path style="opacity:0.004" fill="#fefffe" d="M 206.5,263.5 C 207.833,264.167 207.833,264.167 206.5,263.5 Z"/></g>
<g><path style="opacity:0.004" fill="#fefffe" d="M 80.5,264.5 C 79.8333,265.167 79.8333,265.167 80.5,264.5 Z"/></g>
<g><path style="opacity:0.004" fill="#fefffe" d="M 82.5,264.5 C 83.1667,264.5 83.8333,264.5 84.5,264.5C 83.8333,265.833 83.1667,265.833 82.5,264.5 Z"/></g>
<g><path style="opacity:0.008" fill="#fefffe" d="M 86.5,264.5 C 87.2389,264.369 87.9056,264.536 88.5,265C 87.5632,265.692 86.8966,265.525 86.5,264.5 Z"/></g>
<g><path style="opacity:0.004" fill="#fefffe" d="M 91.5,265.5 C 91.8966,264.475 92.5632,264.308 93.5,265C 92.9056,265.464 92.2389,265.631 91.5,265.5 Z"/></g>
<g><path style="opacity:0.054" fill="#fefefe" d="M 101.5,264.5 C 102.492,264.328 103.158,264.662 103.5,265.5C 102.673,266.439 102.006,266.105 101.5,264.5 Z"/></g>
<g><path style="opacity:0.02" fill="#fefffe" d="M 201.5,265.5 C 202.251,264.427 203.251,264.26 204.5,265C 203.552,265.483 202.552,265.649 201.5,265.5 Z"/></g>
<g><path style="opacity:0.004" fill="#fefffe" d="M 95.5,266.5 C 96.2506,265.427 97.2506,265.26 98.5,266C 97.552,266.483 96.552,266.649 95.5,266.5 Z"/></g>
<g><path style="opacity:0.004" fill="#fefffe" d="M 194.5,265.5 C 195.833,266.167 195.833,266.167 194.5,265.5 Z"/></g>
<g><path style="opacity:0.008" fill="#fefffe" d="M 199.5,266.5 C 198.833,265.167 198.833,265.167 199.5,266.5 Z"/></g>
<g><path style="opacity:0.004" fill="#fefffe" d="M 205.5,265.5 C 206.833,266.167 206.833,266.167 205.5,265.5 Z"/></g>
<g><path style="opacity:0.004" fill="#fefffe" d="M 199.5,266.5 C 200.833,267.167 200.833,267.167 199.5,266.5 Z"/></g>
<g><path style="opacity:0.024" fill="#fefffe" d="M 31.5,292.5 C 33.2884,291.378 35.2884,291.211 37.5,292C 35.5273,292.495 33.5273,292.662 31.5,292.5 Z"/></g>
<g><path style="opacity:0.06" fill="#fefffe" d="M 40.5,292.5 C 42.6282,291.371 44.9615,291.204 47.5,292C 45.1902,292.497 42.8568,292.663 40.5,292.5 Z"/></g>
<g><path style="opacity:0.014" fill="#fefffe" d="M 48.5,292.5 C 48.8966,291.475 49.5632,291.308 50.5,292C 49.9056,292.464 49.2389,292.631 48.5,292.5 Z"/></g>
<g><path style="opacity:0.016" fill="#fefffe" d="M 52.5,292.5 C 53.9464,291.387 55.6131,291.22 57.5,292C 55.8659,292.494 54.1992,292.66 52.5,292.5 Z"/></g>
<g><path style="opacity:0.033" fill="#fefffe" d="M 60.5,292.5 C 61.2506,291.427 62.2506,291.26 63.5,292C 62.552,292.483 61.552,292.649 60.5,292.5 Z"/></g>
</svg>
